<svg width="48" height="48" viewBox="0 0 48 48" fill="none" xmlns="http://www.w3.org/2000/svg">
<path d="M0 24C0 10.7452 10.7452 0 24 0V0C37.2548 0 48 10.7452 48 24V24C48 37.2548 37.2548 48 24 48V48C10.7452 48 0 37.2548 0 24V24Z" fill="#0F0F0F"/>
<g clip-path="url(#clip0_1_8)">
<path d="M23.5529 44C23.0927 44 22.6927 43.87 22.3526 43.6099L17.4614 39.1387L12.5101 32.6872C12.2901 32.4071 12.15 32.2371 12.09 32.1771C12.03 32.097 12 31.917 12 31.6369V16.3331C12 16.053 12.03 15.873 12.09 15.7929C12.17 15.7129 12.3101 15.5429 12.5101 15.2828L17.1013 9.34133L22.3526 4.3901C22.5727 4.21005 22.7427 4.10002 22.8627 4.06001C23.0027 4.02 23.2328 4 23.5529 4H30.9647C31.4648 4 31.7149 4.25006 31.7149 4.75018V9.55139C31.7149 9.71143 31.6949 9.88147 31.6549 10.0615C31.6349 10.2216 31.5349 10.3616 31.3548 10.4816L25.7134 14.3526L22.0225 19.0937V28.9063L25.7734 33.6474L31.3548 37.4883C31.5149 37.5884 31.6149 37.7084 31.6549 37.8485C31.6949 37.9885 31.7149 38.1385 31.7149 38.2986V43.2498C31.7149 43.7499 31.4648 44 30.9647 44H23.5529Z" fill="#CFCFCF"/>
</g>
<defs>
<clipPath id="clip0_1_8">
<rect width="20" height="40" fill="white" transform="translate(12 4)"/>
</clipPath>
</defs>
</svg>
