<svg width="24" height="48" viewBox="0 0 24 48" fill="none" xmlns="http://www.w3.org/2000/svg">
<path d="M13.8635 48C13.3113 48 12.8312 47.844 12.4231 47.5319L6.55364 42.1665L0.612153 34.4246C0.348087 34.0885 0.180045 33.8845 0.108027 33.8125C0.0360091 33.7164 0 33.5004 0 33.1643V14.7997C0 14.4636 0.0360091 14.2476 0.108027 14.1515C0.204051 14.0555 0.372093 13.8515 0.612153 13.5394L6.12153 6.4096L12.4231 0.468115C12.6872 0.25206 12.8912 0.120028 13.0353 0.0720169C13.2033 0.0240055 13.4794 0 13.8635 0H22.7577C23.3578 0 23.6579 0.300073 23.6579 0.900222V6.66167C23.6579 6.85371 23.6339 7.05776 23.5859 7.27382C23.5619 7.46587 23.4419 7.63391 23.2258 7.77794L16.4561 12.4231L12.027 18.1125V29.8875L16.5281 35.5769L23.2258 40.186C23.4179 40.3061 23.5379 40.4501 23.5859 40.6182C23.6339 40.7862 23.6579 40.9662 23.6579 41.1583V47.0998C23.6579 47.6999 23.3578 48 22.7577 48H13.8635Z" fill="#CFCFCF"/>
</svg>
