<svg width="671" height="135" viewBox="0 0 671 135" fill="none" xmlns="http://www.w3.org/2000/svg">
<path d="M11 4.97831C11 2.22886 13.2289 0 15.9783 0H140.436C143.186 0 145.414 2.22887 145.414 4.97831V129.436C145.414 132.186 143.186 134.414 140.436 134.414H15.9783C13.2289 134.414 11 132.186 11 129.436V4.97831Z" fill="#808080"/>
<path d="M0 26H157V47H0V26Z" fill="white"/>
<path d="M64.6795 28.9118L64.6795 134.414L40.8471 134.414L40.8471 28.9118L64.6795 28.9118Z" fill="white"/>
<path d="M584.676 134.414C583.017 134.414 582.187 133.585 582.187 131.925V4.18178C582.187 2.52234 583.017 1.69263 584.676 1.69263H645.411C647.005 1.69263 648.332 2.22364 649.394 3.28569L669.307 23.1989C670.436 24.3274 671 25.6549 671 27.1816V108.826C671 110.419 670.436 111.747 669.307 112.809L649.394 132.722C648.332 133.85 647.005 134.414 645.411 134.414H584.676ZM615.442 107.83H633.663C636.451 107.83 637.844 105.972 637.844 102.255V33.8525C637.844 30.069 636.451 28.1773 633.663 28.1773H615.442V107.83Z" fill="#808080"/>
<path d="M487.168 134.414C485.509 134.414 484.679 133.585 484.679 131.925V4.18178C484.679 2.52234 485.509 1.69263 487.168 1.69263H556.566C558.225 1.69263 559.055 2.52234 559.055 4.18178V25.6881C559.055 27.3475 558.225 28.1773 556.566 28.1773H517.834V56.4541H553.18C554.84 56.4541 555.67 57.2838 555.67 58.9432V77.1639C555.67 78.8233 554.84 79.653 553.18 79.653H517.834V107.83H556.566C558.225 107.83 559.055 108.66 559.055 110.319V131.925C559.055 133.585 558.225 134.414 556.566 134.414H487.168Z" fill="#808080"/>
<path d="M375.237 134.414C373.577 134.414 372.748 133.585 372.748 131.925V4.18178C372.748 2.52234 373.577 1.69263 375.237 1.69263H435.972C437.565 1.69263 438.893 2.22364 439.955 3.28569L459.868 23.1989C460.997 24.3274 461.561 25.6549 461.561 27.1816V108.826C461.561 110.419 460.997 111.747 459.868 112.809L439.955 132.722C438.893 133.85 437.565 134.414 435.972 134.414H375.237ZM406.003 107.83H424.223C427.011 107.83 428.405 105.972 428.405 102.255V33.8525C428.405 30.069 427.011 28.1773 424.223 28.1773H406.003V107.83Z" fill="#808080"/>
<path d="M284.882 134.414C283.355 134.414 282.028 133.85 280.899 132.722L260.986 112.809C259.858 111.747 259.293 110.419 259.293 108.826V27.1816C259.293 25.6549 259.858 24.3274 260.986 23.1989L280.899 3.28569C282.028 2.22364 283.355 1.69263 284.882 1.69263H324.012C325.605 1.69263 326.932 2.22364 327.994 3.28569L347.907 23.1989C349.036 24.3274 349.6 25.6549 349.6 27.1816V108.826C349.6 110.419 349.036 111.747 347.907 112.809L327.994 132.722C326.932 133.85 325.605 134.414 324.012 134.414H284.882ZM296.631 107.83H312.263C315.051 107.83 316.444 105.972 316.444 102.255V33.8525C316.444 30.069 315.051 28.1773 312.263 28.1773H296.631C293.909 28.1773 292.549 30.069 292.549 33.8525V102.255C292.549 105.972 293.909 107.83 296.631 107.83Z" fill="#808080"/>
<path d="M212.92 134.414C211.394 134.414 210.066 133.983 208.938 133.12L192.708 118.285L176.28 96.878C175.55 95.9487 175.085 95.3845 174.886 95.1854C174.687 94.9199 174.587 94.3225 174.587 93.3932V42.6144C174.587 41.6851 174.687 41.0877 174.886 40.8222C175.152 40.5567 175.616 39.9925 176.28 39.1295L191.514 19.4154L208.938 2.98698C209.668 2.38958 210.232 2.02451 210.63 1.89176C211.095 1.759 211.858 1.69263 212.92 1.69263H237.513C239.173 1.69263 240.002 2.52234 240.002 4.18178V20.1124C240.002 20.6434 239.936 21.2076 239.803 21.805C239.737 22.336 239.405 22.8007 238.808 23.1989L220.089 36.043L207.843 51.7745V84.3326L220.288 100.064L238.808 112.809C239.339 113.14 239.671 113.539 239.803 114.003C239.936 114.468 240.002 114.966 240.002 115.497V131.925C240.002 133.585 239.173 134.414 237.513 134.414H212.92Z" fill="#808080"/>
</svg>
