<svg width="649" height="133" viewBox="0 0 649 133" fill="none" xmlns="http://www.w3.org/2000/svg">
<path d="M563.206 132.181C561.557 132.181 560.732 131.356 560.732 129.706V2.65676C560.732 1.00635 561.557 0.181152 563.206 0.181152H623.569C625.152 0.181152 626.471 0.709281 627.527 1.76555L647.318 21.5705C648.439 22.6928 649 24.0131 649 25.5315V106.732C649 108.316 648.439 109.637 647.318 110.693L627.527 130.498C626.471 131.62 625.152 132.181 623.569 132.181H563.206ZM593.783 105.742H611.892C614.663 105.742 616.048 103.893 616.048 100.196V32.1662C616.048 28.4032 614.663 26.5217 611.892 26.5217H593.783V105.742Z" fill="black"/>
<path d="M466.297 132.181C464.648 132.181 463.823 131.356 463.823 129.706V2.65676C463.823 1.00635 464.648 0.181152 466.297 0.181152H535.269C536.918 0.181152 537.743 1.00635 537.743 2.65676V24.0461C537.743 25.6965 536.918 26.5217 535.269 26.5217H496.775V54.6448H531.904C533.553 54.6448 534.378 55.47 534.378 57.1204V75.2419C534.378 76.8923 533.553 77.7175 531.904 77.7175H496.775V105.742H535.269C536.918 105.742 537.743 106.567 537.743 108.217V129.706C537.743 131.356 536.918 132.181 535.269 132.181H466.297Z" fill="black"/>
<path d="M355.054 132.181C353.405 132.181 352.58 131.356 352.58 129.706V2.65676C352.58 1.00635 353.405 0.181152 355.054 0.181152H415.416C416.999 0.181152 418.319 0.709281 419.374 1.76555L439.165 21.5705C440.287 22.6928 440.847 24.0131 440.847 25.5315V106.732C440.847 108.316 440.287 109.637 439.165 110.693L419.374 130.498C418.319 131.62 416.999 132.181 415.416 132.181H355.054ZM385.631 105.742H403.739C406.51 105.742 407.896 103.893 407.896 100.196V32.1662C407.896 28.4032 406.51 26.5217 403.739 26.5217H385.631V105.742Z" fill="black"/>
<path d="M265.254 132.181C263.737 132.181 262.417 131.62 261.296 130.498L241.505 110.693C240.383 109.637 239.823 108.316 239.823 106.732V25.5315C239.823 24.0131 240.383 22.6928 241.505 21.5705L261.296 1.76555C262.417 0.709281 263.737 0.181152 265.254 0.181152H304.143C305.726 0.181152 307.046 0.709281 308.101 1.76555L327.892 21.5705C329.014 22.6928 329.575 24.0131 329.575 25.5315V106.732C329.575 108.316 329.014 109.637 327.892 110.693L308.101 130.498C307.046 131.62 305.726 132.181 304.143 132.181H265.254ZM276.931 105.742H292.467C295.237 105.742 296.623 103.893 296.623 100.196V32.1662C296.623 28.4032 295.237 26.5217 292.467 26.5217H276.931C274.226 26.5217 272.874 28.4032 272.874 32.1662V100.196C272.874 103.893 274.226 105.742 276.931 105.742Z" fill="black"/>
<path d="M193.735 132.181C192.217 132.181 190.898 131.752 189.776 130.894L173.647 116.139L157.319 94.8488C156.594 93.9246 156.132 93.3634 155.934 93.1654C155.736 92.9013 155.637 92.3072 155.637 91.383V40.8803C155.637 39.9561 155.736 39.3619 155.934 39.0979C156.198 38.8338 156.66 38.2727 157.319 37.4145L172.459 17.8076L189.776 1.46847C190.502 0.874317 191.063 0.51123 191.459 0.379199C191.92 0.247168 192.679 0.181152 193.735 0.181152H218.176C219.826 0.181152 220.65 1.00635 220.65 2.65676V18.5007C220.65 19.0289 220.584 19.59 220.452 20.1841C220.386 20.7123 220.056 21.1744 219.463 21.5705L200.859 34.3447L188.688 49.9906V82.3717L201.057 98.0176L219.463 110.693C219.991 111.023 220.32 111.419 220.452 111.881C220.584 112.343 220.65 112.838 220.65 113.366V129.706C220.65 131.356 219.826 132.181 218.176 132.181H193.735Z" fill="black"/>
<path fill-rule="evenodd" clip-rule="evenodd" d="M0 10C0 4.47715 4.47715 0 10 0H122C127.523 0 132 4.47715 132 10V26.1985H50.3817H25.1908H0V10ZM25.1908 51.3893H0V122C0 127.523 4.47715 132 10 132H25.1908L25.1908 51.3893ZM50.3817 132H122C127.523 132 132 127.523 132 122V51.3893H50.3817L50.3817 132Z" fill="black"/>
</svg>
